adventprofmm_bld_krn.ufo
<glyph name="asciicircum" format="1">
  <advance width="380"/>
  <unicode hex="005E"/>
  <outline>
    <contour>
      <point x="351" y="772" type="line"/>
      <point x="223" y="898" type="line"/>
      <point x="91" y="771" type="line"/>
      <point x="143" y="718" type="line"/>
      <point x="223" y="801" type="line"/>
      <point x="297" y="719" type="line"/>
    </contour>
  </outline>
</glyph>
<glyph name="asciitilde" format="1">
  <advance width="382"/>
  <unicode hex="007E"/>
  <outline>
    <contour>
      <point x="347" y="299" type="curve"/>
      <point x="314" y="355" type="line"/>
      <point x="290" y="337"/>
      <point x="269" y="331"/>
      <point x="251" y="331" type="curve" smooth="yes"/>
      <point x="209" y="331"/>
      <point x="172" y="360"/>
      <point x="126" y="360" type="curve" smooth="yes"/>
      <point x="89" y="360"/>
      <point x="58" y="341"/>
      <point x="31" y="319" type="curve"/>
      <point x="64" y="263" type="line"/>
      <point x="88" y="279"/>
      <point x="110" y="286"/>
      <point x="130" y="286" type="curve" smooth="yes"/>
      <point x="171" y="285"/>
      <point x="207" y="257"/>
      <point x="250" y="256" type="curve" smooth="yes"/>
      <point x="290" y="256"/>
      <point x="321" y="276"/>
    </contour>
  </outline>
</glyph>
<glyph name="acute" format="1">
  <advance width="237"/>
  <unicode hex="00B4"/>
  <outline>
    <contour>
      <point x="152" y="671" type="line"/>
      <point x="170" y="693"/>
      <point x="170" y="727"/>
      <point x="145" y="741" type="curve" smooth="yes"/>
      <point x="119" y="757"/>
      <point x="87" y="738"/>
      <point x="80" y="712" type="curve" smooth="yes"/>
      <point x="50" y="596" type="line"/>
      <point x="94" y="596" type="line"/>
    </contour>
  </outline>
</glyph>
<glyph name="cedilla" format="1">
  <advance width="339"/>
  <unicode hex="00B8"/>
  <outline>
    <contour>
      <point x="109" y="0" type="line"/>
      <point x="43" y="0" type="line"/>
      <point x="-3" y="-75" type="line"/>
      <point x="15" y="-114" type="line"/>
      <point x="56" y="-111"/>
      <point x="85" y="-107"/>
      <point x="105" y="-107" type="curve" smooth="yes"/>
      <point x="130" y="-107"/>
      <point x="140" y="-120"/>
      <point x="140" y="-138" type="curve" smooth="yes"/>
      <point x="140" y="-155"/>
      <point x="129" y="-168"/>
      <point x="101" y="-168" type="curve" smooth="yes"/>
      <point x="58" y="-168"/>
      <point x="2" y="-158"/>
      <point x="1" y="-158" type="curve"/>
      <point x="-4" y="-187"/>
      <point x="-7" y="-196"/>
      <point x="-12" y="-223" type="curve"/>
      <point x="-10" y="-224"/>
      <point x="42" y="-235"/>
      <point x="90" y="-235" type="curve" smooth="yes"/>
      <point x="172" y="-235"/>
      <point x="207" y="-193"/>
      <point x="207" y="-133" type="curve" smooth="yes"/>
      <point x="207" y="-86"/>
      <point x="173" y="-40"/>
      <point x="112" y="-40" type="curve" smooth="yes"/>
      <point x="108" y="-40"/>
      <point x="103" y="-41"/>
      <point x="85" y="-42" type="curve"/>
    </contour>
  </outline>
</glyph>
<glyph name="IJ" format="1">
  <advance width="485"/>
  <unicode hex="0132"/>
  <outline>
    <contour>
      <point x="23" y="593" type="line"/>
      <point x="86" y="591" type="line"/>
      <point x="86" y="0" type="line"/>
      <point x="196" y="0" type="line"/>
      <point x="196" y="698" type="line"/>
      <point x="23" y="698" type="line"/>
    </contour>
    <contour>
      <point x="444" y="139" type="curve" smooth="yes"/>
      <point x="444" y="698" type="line"/>
      <point x="275" y="698" type="line"/>
      <point x="275" y="593" type="line"/>
      <point x="336" y="591" type="line"/>
      <point x="336" y="156" type="line" smooth="yes"/>
      <point x="336" y="90"/>
      <point x="301" y="57"/>
      <point x="230" y="57" type="curve"/>
      <point x="267" y="-37" type="line"/>
      <point x="303" y="-36"/>
      <point x="350" y="-28"/>
      <point x="388" y="3" type="curve" smooth="yes"/>
      <point x="420" y="29"/>
      <point x="444" y="71"/>
    </contour>
  </outline>
</glyph>
<glyph name="ij" format="1">
  <advance width="421"/>
  <unicode hex="0133"/>
  <outline>
    <contour>
      <point x="44" y="0" type="line"/>
      <point x="154" y="0" type="line"/>
      <point x="154" y="499" type="line"/>
      <point x="44" y="499" type="line"/>
    </contour>
    <contour>
      <point x="99" y="708" type="curve" smooth="yes"/>
      <point x="66" y="708"/>
      <point x="40" y="683"/>
      <point x="40" y="650" type="curve" smooth="yes"/>
      <point x="40" y="617"/>
      <point x="66" y="590"/>
      <point x="99" y="590" type="curve" smooth="yes"/>
      <point x="132" y="590"/>
      <point x="159" y="617"/>
      <point x="159" y="650" type="curve" smooth="yes"/>
      <point x="159" y="683"/>
      <point x="132" y="708"/>
    </contour>
    <contour>
      <point x="373" y="-61" type="curve" smooth="yes"/>
      <point x="373" y="499" type="line"/>
      <point x="190" y="499" type="line"/>
      <point x="190" y="410" type="line"/>
      <point x="263" y="400" type="line"/>
      <point x="263" y="-50" type="line" smooth="yes"/>
      <point x="263" y="-74"/>
      <point x="254" y="-91"/>
      <point x="242" y="-102" type="curve"/>
      <point x="229" y="-116"/>
      <point x="215" y="-120"/>
      <point x="192" y="-125" type="curve"/>
      <point x="221" y="-215" type="line"/>
      <point x="251" y="-215"/>
      <point x="297" y="-202"/>
      <point x="326" y="-177" type="curve" smooth="yes"/>
      <point x="354" y="-151"/>
      <point x="373" y="-116"/>
    </contour>
    <contour>
      <point x="380" y="649" type="curve" smooth="yes"/>
      <point x="380" y="682"/>
      <point x="352" y="708"/>
      <point x="319" y="708" type="curve" smooth="yes"/>
      <point x="286" y="708"/>
      <point x="260" y="682"/>
      <point x="260" y="649" type="curve" smooth="yes"/>
      <point x="260" y="617"/>
      <point x="286" y="590"/>
      <point x="319" y="590" type="curve" smooth="yes"/>
      <point x="352" y="590"/>
      <point x="380" y="617"/>
    </contour>
  </outline>
</glyph>
<glyph name="caron" format="1">
  <advance width="380"/>
  <unicode hex="02C7"/>
  <outline>
    <contour>
      <point x="319" y="716" type="line"/>
      <point x="267" y="768" type="line"/>
      <point x="187" y="686" type="line"/>
      <point x="112" y="767" type="line"/>
      <point x="59" y="715" type="line"/>
      <point x="187" y="588" type="line"/>
    </contour>
  </outline>
</glyph>
<glyph name="breve" format="1">
  <advance width="392"/>
  <unicode hex="02D8"/>
  <outline>
    <contour>
      <point x="309" y="705" type="line"/>
      <point x="230" y="705" type="line"/>
      <point x="230" y="698" type="line" smooth="yes"/>
      <point x="230" y="680"/>
      <point x="215" y="664"/>
      <point x="196" y="664" type="curve" smooth="yes"/>
      <point x="177" y="664"/>
      <point x="162" y="680"/>
      <point x="162" y="698" type="curve" smooth="yes"/>
      <point x="162" y="705" type="line"/>
      <point x="82" y="705" type="line"/>
      <point x="82" y="698" type="line" smooth="yes"/>
      <point x="82" y="636"/>
      <point x="133" y="585"/>
      <point x="196" y="585" type="curve" smooth="yes"/>
      <point x="257" y="585"/>
      <point x="309" y="636"/>
      <point x="309" y="698" type="curve" smooth="yes"/>
    </contour>
  </outline>
</glyph>
<glyph name="dotaccent" format="1">
  <advance width="239"/>
  <unicode hex="02D9"/>
  <outline>
    <contour>
      <point x="29" y="774" type="curve" smooth="yes"/>
      <point x="-4" y="774"/>
      <point x="-31" y="749"/>
      <point x="-31" y="716" type="curve" smooth="yes"/>
      <point x="-31" y="683"/>
      <point x="-4" y="656"/>
      <point x="29" y="656" type="curve" smooth="yes"/>
      <point x="62" y="656"/>
      <point x="88" y="683"/>
      <point x="88" y="716" type="curve" smooth="yes"/>
      <point x="88" y="749"/>
      <point x="62" y="774"/>
    </contour>
  </outline>
</glyph>
<glyph name="ring" format="1">
  <advance width="346"/>
  <unicode hex="02DA"/>
  <outline>
    <contour>
      <point x="110" y="774" type="curve" smooth="yes"/>
      <point x="47" y="774"/>
      <point x="-4" y="724"/>
      <point x="-4" y="661" type="curve" smooth="yes"/>
      <point x="-4" y="598"/>
      <point x="47" y="547"/>
      <point x="110" y="547" type="curve" smooth="yes"/>
      <point x="173" y="547"/>
      <point x="224" y="598"/>
      <point x="224" y="661" type="curve" smooth="yes"/>
      <point x="224" y="724"/>
      <point x="173" y="774"/>
    </contour>
    <contour>
      <point x="110" y="692" type="curve" smooth="yes"/>
      <point x="127" y="692"/>
      <point x="141" y="678"/>
      <point x="141" y="661" type="curve" smooth="yes"/>
      <point x="141" y="642"/>
      <point x="127" y="629"/>
      <point x="110" y="629" type="curve" smooth="yes"/>
      <point x="94" y="629"/>
      <point x="79" y="642"/>
      <point x="79" y="661" type="curve" smooth="yes"/>
      <point x="79" y="678"/>
      <point x="94" y="692"/>
    </contour>
  </outline>
</glyph>
<glyph name="tilde" format="1">
  <advance width="382"/>
  <unicode hex="02DC"/>
  <outline>
    <contour>
      <point x="234" y="705" type="line"/>
      <point x="221" y="694"/>
      <point x="204" y="686"/>
      <point x="188" y="686" type="curve" smooth="yes"/>
      <point x="151" y="686"/>
      <point x="120" y="705"/>
      <point x="87" y="705" type="curve" smooth="yes"/>
      <point x="48" y="705"/>
      <point x="23" y="690"/>
      <point x="-3" y="671" type="curve"/>
      <point x="26" y="613" type="line"/>
      <point x="34" y="619"/>
      <point x="47" y="630"/>
      <point x="71" y="631" type="curve" smooth="yes"/>
      <point x="109" y="631"/>
      <point x="141" y="614"/>
      <point x="176" y="614" type="curve" smooth="yes"/>
      <point x="210" y="614"/>
      <point x="239" y="628"/>
      <point x="260" y="645" type="curve"/>
    </contour>
  </outline>
</glyph>
<glyph name="gravecomb" format="1">
  <advance width="175"/>
  <unicode hex="0300"/>
  <outline>
    <contour>
      <point x="102" y="587" type="line"/>
      <point x="146" y="587" type="line"/>
      <point x="116" y="704" type="line"/>
      <point x="105" y="730"/>
      <point x="77" y="749"/>
      <point x="50" y="734" type="curve" smooth="yes"/>
      <point x="21" y="718"/>
      <point x="26" y="682"/>
      <point x="44" y="663" type="curve"/>
    </contour>
  </outline>
</glyph>
<glyph name="circumflexcomb" format="1">
  <advance width="314"/>
  <unicode hex="0302"/>
  <outline>
    <contour>
      <point x="158" y="673" type="line"/>
      <point x="233" y="592" type="line"/>
      <point x="286" y="643" type="line"/>
      <point x="158" y="770" type="line"/>
      <point x="26" y="642" type="line"/>
      <point x="78" y="591" type="line"/>
    </contour>
  </outline>
</glyph>
<glyph name="tildecomb" format="1">
  <advance width="325"/>
  <unicode hex="0303"/>
  <outline>
    <contour>
      <point x="293" y="645" type="curve"/>
      <point x="267" y="705" type="line"/>
      <point x="254" y="694"/>
      <point x="237" y="686"/>
      <point x="221" y="686" type="curve" smooth="yes"/>
      <point x="184" y="686"/>
      <point x="153" y="705"/>
      <point x="120" y="705" type="curve" smooth="yes"/>
      <point x="81" y="705"/>
      <point x="56" y="690"/>
      <point x="30" y="671" type="curve"/>
      <point x="59" y="613" type="line"/>
      <point x="67" y="619"/>
      <point x="80" y="630"/>
      <point x="104" y="631" type="curve" smooth="yes"/>
      <point x="142" y="631"/>
      <point x="174" y="614"/>
      <point x="209" y="614" type="curve" smooth="yes"/>
      <point x="243" y="614"/>
      <point x="272" y="628"/>
    </contour>
  </outline>
</glyph>
<glyph name="macroncomb" format="1">
  <advance width="287"/>
  <unicode hex="0304"/>
  <outline>
    <contour>
      <point x="32" y="618" type="line"/>
      <point x="253" y="618" type="line"/>
      <point x="253" y="708" type="line"/>
      <point x="32" y="708" type="line"/>
    </contour>
  </outline>
</glyph>
<glyph name="brevecomb" format="1">
  <advance width="281"/>
  <unicode hex="0306"/>
  <outline>
    <contour>
      <point x="253" y="698" type="curve" smooth="yes"/>
      <point x="253" y="705" type="line"/>
      <point x="174" y="705" type="line"/>
      <point x="174" y="698" type="line" smooth="yes"/>
      <point x="174" y="680"/>
      <point x="159" y="664"/>
      <point x="140" y="664" type="curve" smooth="yes"/>
      <point x="121" y="664"/>
      <point x="106" y="680"/>
      <point x="106" y="698" type="curve" smooth="yes"/>
      <point x="106" y="705" type="line"/>
      <point x="26" y="705" type="line"/>
      <point x="26" y="698" type="line" smooth="yes"/>
      <point x="26" y="636"/>
      <point x="77" y="585"/>
      <point x="140" y="585" type="curve" smooth="yes"/>
      <point x="201" y="585"/>
      <point x="253" y="636"/>
    </contour>
  </outline>
</glyph>
<glyph name="dotaccentcomb" format="1">
  <advance width="178"/>
  <unicode hex="0307"/>
  <outline>
    <contour>
      <point x="89" y="774" type="curve" smooth="yes"/>
      <point x="56" y="774"/>
      <point x="29" y="749"/>
      <point x="29" y="716" type="curve" smooth="yes"/>
      <point x="29" y="683"/>
      <point x="56" y="656"/>
      <point x="89" y="656" type="curve" smooth="yes"/>
      <point x="122" y="656"/>
      <point x="148" y="683"/>
      <point x="148" y="716" type="curve" smooth="yes"/>
      <point x="148" y="749"/>
      <point x="122" y="774"/>
    </contour>
  </outline>
</glyph>
<glyph name="dieresiscomb" format="1">
  <advance width="337"/>
  <unicode hex="0308"/>
  <outline>
    <contour>
      <point x="89" y="767" type="curve" smooth="yes"/>
      <point x="56" y="767"/>
      <point x="29" y="740"/>
      <point x="29" y="708" type="curve" smooth="yes"/>
      <point x="29" y="675"/>
      <point x="56" y="648"/>
      <point x="89" y="648" type="curve" smooth="yes"/>
      <point x="122" y="648"/>
      <point x="148" y="675"/>
      <point x="148" y="708" type="curve" smooth="yes"/>
      <point x="148" y="740"/>
      <point x="122" y="767"/>
    </contour>
    <contour>
      <point x="247" y="767" type="curve" smooth="yes"/>
      <point x="214" y="767"/>
      <point x="187" y="740"/>
      <point x="187" y="708" type="curve" smooth="yes"/>
      <point x="187" y="675"/>
      <point x="214" y="648"/>
      <point x="247" y="648" type="curve" smooth="yes"/>
      <point x="280" y="648"/>
      <point x="307" y="675"/>
      <point x="307" y="708" type="curve" smooth="yes"/>
      <point x="307" y="740"/>
      <point x="280" y="767"/>
    </contour>
  </outline>
</glyph>
<glyph name="caroncomb" format="1">
  <advance width="307"/>
  <outline>
    <contour>
      <point x="23" y="715" type="line"/>
      <point x="151" y="588" type="line"/>
      <point x="283" y="716" type="line"/>
      <point x="231" y="768" type="line"/>
      <point x="151" y="686" type="line"/>
      <point x="76" y="767" type="line"/>
    </contour>
  </outline>
</glyph>
<glyph name="cedillacomb" format="1">
  <advance width="226"/>
  <outline>
    <contour>
      <point x="108" y="-42" type="curve"/>
      <point x="132" y="0" type="line"/>
      <point x="66" y="0" type="line"/>
      <point x="20" y="-75" type="line"/>
      <point x="38" y="-114" type="line"/>
      <point x="79" y="-111"/>
      <point x="108" y="-107"/>
      <point x="128" y="-107" type="curve" smooth="yes"/>
      <point x="153" y="-107"/>
      <point x="163" y="-120"/>
      <point x="163" y="-138" type="curve" smooth="yes"/>
      <point x="163" y="-155"/>
      <point x="152" y="-168"/>
      <point x="124" y="-168" type="curve" smooth="yes"/>
      <point x="81" y="-168"/>
      <point x="25" y="-158"/>
      <point x="24" y="-158" type="curve"/>
      <point x="19" y="-187"/>
      <point x="16" y="-196"/>
      <point x="11" y="-223" type="curve"/>
      <point x="13" y="-224"/>
      <point x="65" y="-235"/>
      <point x="113" y="-235" type="curve" smooth="yes"/>
      <point x="195" y="-235"/>
      <point x="230" y="-193"/>
      <point x="230" y="-133" type="curve" smooth="yes"/>
      <point x="230" y="-86"/>
      <point x="196" y="-40"/>
      <point x="135" y="-40" type="curve" smooth="yes"/>
      <point x="131" y="-40"/>
      <point x="126" y="-41"/>
    </contour>
  </outline>
</glyph>
<glyph name="commaturnedabovecomb" format="1">
  <advance width="164"/>
  <outline>
    <contour>
      <point x="113" y="726" type="curve"/>
      <point x="88" y="741" type="line"/>
      <point x="88" y="741"/>
      <point x="21" y="700"/>
      <point x="21" y="609" type="curve" smooth="yes"/>
      <point x="21" y="576"/>
      <point x="48" y="550"/>
      <point x="81" y="550" type="curve" smooth="yes"/>
      <point x="114" y="550"/>
      <point x="141" y="576"/>
      <point x="141" y="609" type="curve" smooth="yes"/>
      <point x="141" y="637"/>
      <point x="121" y="661"/>
      <point x="97" y="667" type="curve"/>
      <point x="98" y="686"/>
      <point x="103" y="708"/>
    </contour>
  </outline>
</glyph>
<glyph name="hungarumlautcomb" format="1">
  <advance width="283"/>
  <outline>
    <contour>
      <point x="27" y="569" type="line"/>
      <point x="71" y="569" type="line"/>
      <point x="129" y="645" type="line"/>
      <point x="148" y="667"/>
      <point x="148" y="702"/>
      <point x="122" y="716" type="curve" smooth="yes"/>
      <point x="97" y="730"/>
      <point x="63" y="710"/>
      <point x="57" y="685" type="curve" smooth="yes"/>
    </contour>
    <contour>
      <point x="139" y="569" type="line"/>
      <point x="183" y="569" type="line"/>
      <point x="242" y="645" type="line" smooth="yes"/>
      <point x="260" y="667"/>
      <point x="260" y="702"/>
      <point x="234" y="716" type="curve" smooth="yes"/>
      <point x="206" y="730"/>
      <point x="176" y="711"/>
      <point x="169" y="685" type="curve" smooth="yes"/>
    </contour>
  </outline>
</glyph>
<glyph name="ogonekcomb" format="1">
  <advance width="257"/>
  <outline>
    <contour>
      <point x="103" y="-123" type="curve"/>
      <point x="185" y="2" type="line"/>
      <point x="185" y="16" type="line"/>
      <point x="95" y="7" type="line"/>
      <point x="95" y="3" type="line"/>
      <point x="40" y="-87" type="line" smooth="yes"/>
      <point x="-10" y="-175"/>
      <point x="58" y="-251"/>
      <point x="150" y="-224" type="curve" smooth="yes"/>
      <point x="172" y="-218"/>
      <point x="254" y="-190"/>
      <point x="255" y="-190" type="curve"/>
      <point x="230" y="-118" type="line"/>
      <point x="230" y="-118"/>
      <point x="155" y="-144"/>
      <point x="127" y="-154" type="curve"/>
      <point x="103" y="-164"/>
      <point x="92" y="-142"/>
    </contour>
  </outline>
</glyph>
<glyph name="ringcomb" format="1">
  <advance width="280"/>
  <outline>
    <contour>
      <point x="139" y="774" type="curve" smooth="yes"/>
      <point x="76" y="774"/>
      <point x="25" y="724"/>
      <point x="25" y="661" type="curve" smooth="yes"/>
      <point x="25" y="598"/>
      <point x="76" y="547"/>
      <point x="139" y="547" type="curve" smooth="yes"/>
      <point x="202" y="547"/>
      <point x="253" y="598"/>
      <point x="253" y="661" type="curve" smooth="yes"/>
      <point x="253" y="724"/>
      <point x="202" y="774"/>
    </contour>
    <contour>
      <point x="139" y="692" type="curve" smooth="yes"/>
      <point x="156" y="692"/>
      <point x="170" y="678"/>
      <point x="170" y="661" type="curve" smooth="yes"/>
      <point x="170" y="642"/>
      <point x="156" y="629"/>
      <point x="139" y="629" type="curve" smooth="yes"/>
      <point x="123" y="629"/>
      <point x="108" y="642"/>
      <point x="108" y="661" type="curve" smooth="yes"/>
      <point x="108" y="678"/>
      <point x="123" y="692"/>
    </contour>
  </outline>
</glyph>
